<?xml version="1.0" standalone="no"?><!DOCTYPE svg PUBLIC "-//W3C//DTD SVG 1.1//EN" "http://www.w3.org/Graphics/SVG/1.1/DTD/svg11.dtd"><svg t="1645517917100" class="icon" viewBox="0 0 1024 1024" version="1.1" xmlns="http://www.w3.org/2000/svg" p-id="4617" xmlns:xlink="http://www.w3.org/1999/xlink" width="200" height="200"><defs><style type="text/css"></style></defs><path d="M620.171636 0c10.953697 0 18.245818 3.661576 25.56897 10.953697l255.782788 255.782788c7.292121 7.323152 10.953697 14.615273 10.953697 25.56897v621.164606c0 62.122667-47.507394 109.630061-109.630061 109.63006H218.236121C156.082424 1023.100121 108.606061 975.623758 108.606061 913.470061V109.630061C108.606061 47.476364 156.082424 0 218.236121 0h401.935515zM433.803636 449.442909a35.312485 35.312485 0 0 0-51.137939 0 35.312485 35.312485 0 0 0 0 51.137939l91.322182 91.353213v29.230545H400.911515c-21.907394 0-36.522667 14.615273-36.522667 36.553697 0 21.907394 14.584242 36.522667 36.522667 36.522667h73.076364v73.076363c0 21.938424 14.615273 36.553697 36.553697 36.553697 21.907394 0 36.522667-14.615273 36.522666-36.553697v-73.076363h73.107394c21.907394 0 36.522667-14.584242 36.522667-36.522667 0-21.938424-14.615273-36.553697-36.522667-36.553697H547.064242v-29.230545l91.353213-91.353213a35.312485 35.312485 0 0 0 0-51.137939 35.312485 35.312485 0 0 0-51.13794 0l-76.737939 76.737939z m186.368-361.751273V292.305455h204.613819l-204.613819-204.613819z" fill="#FD4953" p-id="4618"></path></svg>