<?xml version="1.0" standalone="no"?><!DOCTYPE svg PUBLIC "-//W3C//DTD SVG 1.1//EN" "http://www.w3.org/Graphics/SVG/1.1/DTD/svg11.dtd"><svg t="1645517947421" class="icon" viewBox="0 0 1025 1024" version="1.1" xmlns="http://www.w3.org/2000/svg" p-id="5553" xmlns:xlink="http://www.w3.org/1999/xlink" width="200.1953125" height="200"><defs><style type="text/css"></style></defs><path d="M948.224 28.16l-422.912-22.016c-19.968-1.024-38.912 6.144-52.736 20.48L31.232 467.968c-27.136 27.136-27.136 71.168 0 98.816l432.128 432.128c27.136 27.136 71.168 27.136 98.816 0l442.368-442.368c13.312-13.312 20.992-31.744 20.48-51.2l-10.24-409.088c-1.536-36.864-30.208-66.048-66.56-68.096z m-293.376 437.248l-212.48 212.48c-25.088 25.088-66.048 25.088-91.136 0s-25.088-66.048 0-91.136l212.48-212.48c25.088-25.088 66.048-25.088 91.136 0s25.088 66.048 0 91.136zM911.36 208.896c-25.088 25.088-66.048 25.088-91.136 0s-25.088-66.048 0-91.136 66.048-25.088 91.136 0 25.088 66.048 0 91.136z" fill="#FD4953" p-id="5554"></path></svg>